<svg xmlns="http://www.w3.org/2000/svg" viewBox="0 0 1440 320">
  <path fill="#a2d5f2" fill-opacity="0.8" d="M0,160L40,181.3C80,203,160,245,240,240C320,235,400,181,480,149.3C560,117,640,107,720,128C800,149,880,203,960,224C1040,245,1120,235,1200,208C1280,181,1360,139,1400,117.3L1440,96L1440,0L1400,0C1360,0,1280,0,1200,0C1120,0,1040,0,960,0C880,0,800,0,720,0C640,0,560,0,480,0C400,0,320,0,240,0C160,0,80,0,40,0L0,0Z"></path>
  <path fill="#6caddf" fill-opacity="0.6" d="M0,256L48,240C96,224,192,192,288,176C384,160,480,160,576,186.7C672,213,768,267,864,272C960,277,1056,235,1152,202.7C1248,171,1344,149,1392,138.7L1440,128L1440,0L1392,0C1344,0,1248,0,1152,0C1056,0,960,0,864,0C768,0,672,0,576,0C480,0,384,0,288,0C192,0,96,0,48,0L0,0Z"></path>
  <path fill="#3a8ac0" fill-opacity="1" d="M0,64L48,90.7C96,117,192,171,288,176C384,181,480,139,576,133.3C672,128,768,160,864,186.7C960,213,1056,235,1152,218.7C1248,203,1344,149,1392,122.7L1440,96L1440,0L1392,0C1344,0,1248,0,1152,0C1056,0,960,0,864,0C768,0,672,0,576,0C480,0,384,0,288,0C192,0,96,0,48,0L0,0Z"></path>
</svg>