<svg xmlns="http://www.w3.org/2000/svg" viewBox="0 0 1440 320">
  <path fill="#a2d5f2" fill-opacity="0.8" d="M0,96L48,112C96,128,192,160,288,186.7C384,213,480,235,576,218.7C672,203,768,149,864,138.7C960,128,1056,160,1152,170.7C1248,181,1344,171,1392,165.3L1440,160L1440,320L1392,320C1344,320,1248,320,1152,320C1056,320,960,320,864,320C768,320,672,320,576,320C480,320,384,320,288,320C192,320,96,320,48,320L0,320Z"></path>
  <path fill="#6caddf" fill-opacity="0.6" d="M0,192L48,181.3C96,171,192,149,288,160C384,171,480,213,576,240C672,267,768,277,864,256C960,235,1056,181,1152,176C1248,171,1344,213,1392,234.7L1440,256L1440,320L1392,320C1344,320,1248,320,1152,320C1056,320,960,320,864,320C768,320,672,320,576,320C480,320,384,320,288,320C192,320,96,320,48,320L0,320Z"></path>
  <path fill="#3a8ac0" fill-opacity="1" d="M0,288L48,272C96,256,192,224,288,197.3C384,171,480,149,576,160C672,171,768,213,864,240C960,267,1056,277,1152,261.3C1248,245,1344,203,1392,181.3L1440,160L1440,320L1392,320C1344,320,1248,320,1152,320C1056,320,960,320,864,320C768,320,672,320,576,320C480,320,384,320,288,320C192,320,96,320,48,320L0,320Z"></path>
</svg>